# Wavefront OBJ exported by MilkShape 3D

v -2.781643 14.000000 31.000000
v -2.781643 -0.750000 28.625000
v 2.781643 14.000000 31.000000
v 2.781643 -0.750000 28.625000
v 4.072565 13.107231 8.868510
v 4.072565 -0.996177 8.959421
v 4.072565 13.107231 -3.536440
v 4.072565 -0.996177 -3.581894
v 2.781643 1.965384 -30.387777
v 2.781643 -0.937802 -28.908531
v -2.781643 1.965384 -30.387777
v -2.781643 -0.937802 -28.908531
v -4.072565 13.107231 -3.536440
v -4.072565 -0.996177 -3.581894
v -4.072565 13.107231 8.868510
v -4.072565 -0.996177 8.959421
v -2.781643 14.000000 -3.750000
v -2.781643 14.000000 9.250000
v 2.781643 14.000000 -3.750000
v 2.781643 14.000000 9.250000
v -2.781643 -2.125000 9.250000
v -2.781643 -2.125000 -3.750000
v 2.781643 -2.125000 9.250000
v 2.781643 -2.125000 -3.750000
v -4.072565 13.107231 18.410778
v -4.072565 13.107231 8.868510
v -4.072565 -0.996177 8.959421
v -4.072565 1.126637 19.679804
v 2.781643 14.000000 19.250000
v 2.781643 14.000000 9.250000
v -2.781643 14.000000 9.250000
v -2.781643 14.000000 19.250000
v -2.781643 0.200000 19.599995
v 2.781643 -2.125000 9.250000
v 2.781643 0.200000 19.599995
v 4.072565 1.126637 19.679804
v 4.072565 -0.996177 8.959421
v 4.072565 13.107231 18.410778
v 4.072565 13.051676 -13.689820
v 4.072565 13.107231 -3.536440
v 4.072565 -0.996177 -3.581894
v 4.072565 0.286777 -13.396892
v -2.781643 14.000000 -13.750000
v 2.781643 14.000000 -3.750000
v 2.781643 14.000000 -13.750000
v 2.781643 -0.750000 -13.750000
v 2.781643 -2.125000 -3.750000
v -2.781643 -2.125000 -3.750000
v -2.781643 -0.750000 -13.750000
v -4.072565 0.286777 -13.396892
v -4.072565 -0.996177 -3.581894
v -4.072565 13.051676 -13.689820
v 4.072565 11.987321 -23.444435
v 4.072565 -0.075052 -16.761932
v -2.781643 12.817360 -23.972511
v 2.781643 12.817360 -23.972511
v 2.781643 -0.949987 -16.276144
v -2.781643 -0.949987 -16.276144
v -4.072565 -0.075052 -16.761932
v -4.072565 11.987321 -23.444435
v 4.072565 9.445319 -27.905506
v 4.072565 -2.781392 -22.071226
v -2.781643 10.116419 -28.764051
v 2.781643 10.116419 -28.764051
v 2.781643 -3.900927 -22.067690
v -2.781643 -3.900927 -22.067690
v -4.072565 -2.781392 -22.071226
v -4.072565 9.445319 -27.905506
v 4.072565 5.420058 -29.495863
v 4.072565 -2.254966 -25.562897
v -2.781643 5.582123 -30.547112
v 2.781643 5.582123 -30.547112
v 2.781643 -3.192571 -26.076180
v -2.781643 -3.192571 -26.076180
v -4.072565 -2.254966 -25.562897
v -4.072565 5.420058 -29.495863
v 4.072565 2.220530 -29.288242
v 4.072565 -0.392348 -27.876701
v -2.781643 1.965384 -30.387777
v 2.781643 -0.937802 -28.908531
v -2.781643 -0.937802 -28.908531
v -4.072565 -0.392348 -27.876701
v -4.072565 2.220530 -29.288242
v -4.072565 13.107231 25.567482
v -4.072565 -0.120149 21.533056
v 2.781643 14.000000 26.750000
v -2.781643 14.000000 26.750000
v -2.781643 -0.750000 21.000000
v 2.781643 -0.750000 21.000000
v 4.072565 -0.120149 21.533056
v 4.072565 13.107231 25.567482
v -4.072565 13.107231 30.060444
v -4.072565 -0.334435 27.856661
v 2.781643 14.000000 31.000000
v -2.781643 -3.375000 26.111698
v -2.781643 -3.375000 23.513302
v 2.781643 -3.375000 23.513302
v 2.781643 -3.375000 26.111698
v 4.072565 -0.334435 27.856661
v 4.072565 13.107231 30.060444
v -4.072565 -1.861816 27.145996
v -4.072565 -1.814196 22.362701
v -2.781643 -2.500000 21.869469
v 2.781643 -2.500000 21.869469
v 4.072565 -1.814196 22.362701
v 4.072565 -1.861816 27.145996
v 2.781643 -2.500000 27.755531
v 2.781643 -0.750000 28.625000
v -2.781643 -0.750000 28.625000
v -2.781643 -2.500000 27.755531
v -4.072565 -2.554077 25.934584
v -4.072565 -2.554077 23.717037
v 4.072565 -2.554077 23.717037
v 4.072565 -2.554077 25.934584
v -0.400000 13.057552 28.084270
v -0.400000 -1.242436 28.084270
v -0.400000 -6.442448 31.992229
v -0.400000 13.057552 31.992229
v -0.400000 -6.442448 47.500286
v -0.400000 13.057552 47.500286
v -0.400000 -5.442448 58.608318
v -0.400000 13.057552 58.608318
v -0.400000 -3.842412 68.516281
v -0.400000 13.057552 68.516281
v -0.400000 -1.842412 78.624313
v -0.400000 13.057552 78.624313
v -0.400000 0.957576 88.332321
v -0.400000 13.057552 88.332321
v -0.400000 5.157588 99.640305
v -0.400000 13.057552 99.640305
v -0.400000 9.157589 106.348312
v -0.400000 13.057552 106.348312
v -0.400000 13.057552 111.456223
v -0.400000 -1.242436 28.084270
v 0.400001 -1.242437 28.084278
v 0.400001 -6.442438 31.992275
v -0.400000 -6.442448 31.992229
v -0.400000 13.057552 31.992229
v 0.400001 13.057562 31.992275
v 0.400001 13.057562 28.084278
v -0.049088 -8.042448 31.992229
v 0.049101 -8.042448 31.992229
v 0.049101 -8.042448 47.500286
v -0.049088 -8.042448 47.500286
v -0.400000 13.057552 47.500286
v 0.400001 13.057562 47.500278
v 0.049101 -7.042449 58.608318
v -0.049088 -7.042449 58.608318
v -0.400000 13.057552 58.608318
v 0.400001 13.057562 58.608280
v 0.049101 -5.442412 68.516281
v -0.049088 -5.442412 68.516281
v -0.400000 13.057552 68.516281
v 0.400001 13.057562 68.516281
v 0.049101 -3.442412 78.624313
v -0.049088 -3.442412 78.624313
v -0.400000 13.057552 78.624313
v 0.400001 13.057562 78.624268
v 0.049101 -0.642424 88.332321
v -0.049088 -0.642424 88.332321
v -0.400000 13.057552 88.332321
v 0.400001 13.057562 88.332275
v 0.049101 3.557588 99.640305
v -0.049088 3.557588 99.640305
v -0.400000 13.057552 99.640305
v 0.400001 13.057562 99.640289
v 0.049101 7.557587 106.348312
v -0.049088 7.557587 106.348312
v -0.400000 13.057552 106.348312
v 0.400001 13.057562 106.348282
v 0.049101 13.040884 112.872887
v -0.049088 13.040884 112.872887
v -0.400000 13.057552 111.456223
v 0.400001 13.057562 111.456284
v 0.400001 -6.442448 31.992229
v 0.400001 -1.242436 28.084270
v 0.400001 13.057552 28.084270
v 0.400001 13.057552 31.992229
v 0.400001 13.057552 47.500286
v 0.400001 -6.442448 47.500286
v 0.400001 -5.442448 58.608318
v 0.400001 13.057552 58.608318
v 0.400001 13.057552 68.516281
v 0.400001 -3.842412 68.516281
v 0.400001 -1.842412 78.624313
v 0.400001 13.057552 78.624313
v 0.400001 13.057552 88.332321
v 0.400001 0.957576 88.332321
v 0.400001 5.157588 99.640305
v 0.400001 13.057552 99.640305
v 0.400001 13.057552 106.348312
v 0.400001 9.157589 106.348312
v 0.400001 13.057552 111.456223
v 0.400001 -6.442438 47.500278
v -0.400000 -6.442448 47.500286
v 0.400001 -5.442438 58.608280
v -0.400000 -5.442448 58.608318
v 0.400001 -3.842438 68.516281
v -0.400000 -3.842412 68.516281
v 0.400001 -1.842439 78.624268
v -0.400000 -1.842412 78.624313
v 0.400001 0.957561 88.332275
v -0.400000 0.957576 88.332321
v 0.400001 5.157562 99.640289
v -0.400000 5.157588 99.640305
v 0.400001 9.157560 106.348282
v -0.400000 9.157589 106.348312
# 207 vertices

vt 0.758921 0.786120
vt 0.758921 0.982092
vt 0.685006 0.786120
vt 0.685006 0.982092
vt 0.274338 0.514230
vt 0.441386 0.513153
vt 0.274338 0.661161
vt 0.441386 0.661699
vt 0.606862 0.075103
vt 0.606862 0.036530
vt 0.680777 0.075103
vt 0.680777 0.036530
vt 0.674890 0.526587
vt 0.674890 0.696259
vt 0.602279 0.526587
vt 0.602279 0.696259
vt 0.581778 0.482677
vt 0.581778 0.652143
vt 0.509256 0.482677
vt 0.509256 0.652143
vt 0.274831 0.401205
vt 0.416736 0.386174
vt 0.602279 0.826777
vt 0.674890 0.826777
vt 0.581778 0.347756
vt 0.509256 0.347756
vt 0.274996 0.781423
vt 0.426190 0.777954
vt 0.674890 0.396070
vt 0.602279 0.396070
vt 0.509256 0.782502
vt 0.581778 0.782502
vt 0.287602 0.896963
vt 0.430476 0.817811
vt 0.674890 0.262648
vt 0.602279 0.262649
vt 0.509256 0.815433
vt 0.581778 0.815433
vt 0.317711 0.949803
vt 0.462531 0.880698
vt 0.674890 0.200110
vt 0.602279 0.200110
vt 0.509256 0.890931
vt 0.581778 0.890931
vt 0.365389 0.968640
vt 0.456296 0.922055
vt 0.680777 0.123156
vt 0.680777 0.183400
vt 0.606862 0.183400
vt 0.606862 0.123156
vt 0.509256 0.943185
vt 0.581778 0.943185
vt 0.403286 0.966181
vt 0.434234 0.949462
vt 0.509256 0.980107
vt 0.581778 0.980107
vt 0.274831 0.316437
vt 0.431504 0.364223
vt 0.602279 0.924665
vt 0.674890 0.924665
vt 0.581778 0.329506
vt 0.509256 0.329506
vt 0.274831 0.263220
vt 0.434042 0.289323
vt 0.602279 0.980134
vt 0.674890 0.980134
vt 0.581778 0.262870
vt 0.581778 0.296743
vt 0.509256 0.296743
vt 0.509256 0.262870
vt 0.452133 0.297740
vt 0.451569 0.354396
vt 0.581778 0.318171
vt 0.509256 0.318171
vt 0.509256 0.241441
vt 0.509256 0.230107
vt 0.581778 0.230107
vt 0.581778 0.241441
vt 0.460333 0.312089
vt 0.460333 0.338355
vt 0.263763 0.663690
vt 0.263763 0.509711
vt 0.454757 0.509711
vt 0.454757 0.663690
vt 0.264256 0.391265
vt 0.427712 0.387120
vt 0.263763 0.782136
vt 0.438471 0.782136
vt 0.277771 0.903218
vt 0.440839 0.812057
vt 0.309762 0.959972
vt 0.475792 0.880656
vt 0.363469 0.981091
vt 0.467402 0.928135
vt 0.406308 0.979204
vt 0.440695 0.961683
vt 0.264256 0.302431
vt 0.438964 0.370537
vt 0.264256 0.252091
vt 0.438964 0.280222
vt 0.459692 0.290521
vt 0.459692 0.360238
vt 0.470056 0.309991
vt 0.470056 0.340768
vt 0.005482 0.013742
vt 0.170763 0.013742
vt 0.230866 0.058911
vt 0.005482 0.058911
vt 0.230866 0.238155
vt 0.005482 0.238155
vt 0.219308 0.366544
vt 0.005482 0.366544
vt 0.200814 0.481061
vt 0.005482 0.481061
vt 0.177698 0.597892
vt 0.005482 0.597892
vt 0.145335 0.710098
vt 0.005482 0.710098
vt 0.096791 0.840797
vt 0.005482 0.840797
vt 0.050558 0.918330
vt 0.005482 0.918330
vt 0.005482 0.977368
vt 0.249359 0.058990
vt 0.249359 0.238235
vt 0.237801 0.366623
vt 0.219307 0.481141
vt 0.196191 0.597971
vt 0.163828 0.710178
vt 0.115284 0.840877
vt 0.069051 0.918409
vt 0.005674 0.993821
# 132 texture coordinates

vn 0.000000 0.648471 0.761239
vn 0.000000 -0.158969 0.987284
vn 1.000000 0.000000 0.000000
vn 0.000000 -0.254792 -0.966996
vn 0.000000 -0.453990 -0.891007
vn -1.000000 0.000000 0.000000
vn 0.000000 1.000000 0.000000
vn 0.000000 -0.993903 0.110260
vn 0.000000 -1.000000 0.000000
vn 0.000000 -0.999020 -0.044273
vn 0.000000 -0.975685 0.219176
vn 0.000000 -0.945737 -0.324933
vn 0.000000 0.999264 -0.038364
vn 0.000000 0.997052 -0.076729
vn 0.000000 -0.997896 -0.064840
vn 0.000000 -0.990679 -0.136218
vn 0.000000 -0.999974 0.007245
vn 0.000000 0.969627 -0.244587
vn 0.000000 0.928153 -0.372199
vn 0.000000 -0.978240 0.207475
vn 0.000000 -0.942338 0.334663
vn 0.000000 0.740611 -0.671934
vn 0.000000 0.563146 -0.826357
vn 0.000000 -0.966568 0.256411
vn 0.000000 -0.999315 0.037015
vn 0.000000 0.233835 -0.972276
vn 0.000000 0.094477 -0.995527
vn 0.000000 -0.943032 -0.332703
vn 0.000000 -0.873678 -0.486504
vn 0.000000 -0.044012 -0.999031
vn 0.000000 -0.782364 -0.622822
vn 0.000000 -0.720932 -0.693005
vn 0.000000 -0.589604 -0.807693
vn 0.000000 -0.986975 0.160873
vn 0.000000 -0.946826 -0.321745
vn 0.000000 -0.986975 -0.160873
vn 0.000000 -0.946826 0.321745
vn 0.000000 -0.616991 -0.786970
vn 0.000000 -0.769369 -0.638805
vn 0.000000 -0.616991 0.786970
vn 0.000000 -0.444948 0.895557
vn 0.000000 -0.769369 0.638805
vn 0.568970 0.822357 -0.001499
vn 0.576764 0.816909 -0.001500
vn 0.568803 0.822474 0.000000
vn 0.663624 -0.746511 0.048207
vn 0.634261 -0.765422 0.108817
vn 0.660390 -0.750150 -0.034059
vn 0.654154 -0.753360 -0.067316
vn -0.568803 0.822474 0.000000
vn -0.576643 0.816995 -0.001470
vn -0.660305 -0.750298 -0.032405
vn -0.654306 -0.753226 -0.067341
vn -0.664199 -0.745573 0.054402
vn -0.635311 -0.764673 0.107962
vn -0.620839 -0.782103 -0.053601
vn -0.572795 -0.772121 -0.275202
vn 0.619780 -0.783076 -0.051621
vn 0.573942 -0.773590 -0.268604
vn 0.585112 0.810373 -0.030656
vn 0.583932 0.809523 -0.060785
vn 0.640917 -0.766192 -0.046636
vn 0.614128 -0.789032 0.016604
vn -0.640056 -0.767329 -0.039180
vn -0.611266 -0.791284 0.014916
vn -0.585011 0.810379 -0.032368
vn -0.583482 0.809737 -0.062244
vn 0.595016 0.779856 -0.194370
vn 0.602500 0.741389 -0.295526
vn 0.608931 -0.774543 0.171130
vn 0.607697 -0.746520 0.270946
vn -0.605770 -0.777008 0.171176
vn -0.607091 -0.749570 0.263792
vn -0.594388 0.780615 -0.193243
vn -0.602553 0.742036 -0.293789
vn 0.636206 0.572356 -0.517349
vn 0.643458 0.432731 -0.631431
vn 0.642271 -0.739718 0.200764
vn 0.642392 -0.765464 0.037377
vn -0.641455 -0.738737 0.206888
vn -0.644082 -0.764046 0.037312
vn -0.636456 0.571913 -0.517532
vn -0.643314 0.431781 -0.632228
vn 0.635739 0.175733 -0.751634
vn 0.642971 0.067972 -0.762868
vn 0.642879 -0.724529 -0.248526
vn 0.640126 -0.674552 -0.367720
vn -0.644628 -0.722535 -0.249795
vn -0.639693 -0.671617 -0.373797
vn -0.635420 0.181024 -0.750647
vn -0.643987 0.068574 -0.761957
vn 0.649359 -0.150972 -0.745346
vn 0.663862 -0.247535 -0.705701
vn 0.654803 -0.520130 -0.548360
vn 0.658551 -0.437913 -0.611998
vn -0.653576 -0.525072 -0.545103
vn -0.659254 -0.438649 -0.610713
vn -0.650287 -0.144775 -0.745766
vn -0.664337 -0.252044 -0.703654
vn -0.536362 -0.607879 -0.585490
vn -0.525509 -0.499274 -0.688887
vn 0.536656 -0.606580 -0.586567
vn 0.525456 -0.498420 -0.689546
vn -0.692170 0.629694 0.352683
vn -0.677706 0.229358 0.698648
vn -0.542132 -0.208565 0.813998
vn -0.549891 -0.287846 0.784069
vn 0.692063 0.630120 0.352132
vn 0.678315 0.229397 0.698045
vn 0.543511 -0.215109 0.811371
vn 0.548873 -0.288786 0.784436
vn -0.566839 -0.496219 0.657617
vn -0.557225 -0.633373 0.536972
vn -0.533193 -0.517876 -0.668961
vn -0.543168 -0.640814 -0.542518
vn 0.532867 -0.515709 -0.670892
vn 0.543777 -0.641543 -0.541044
vn 0.566395 -0.502675 0.653081
vn 0.555193 -0.629876 0.543154
vn -0.550961 -0.787543 0.276075
vn -0.544827 -0.827559 0.135315
vn -0.549165 -0.790353 -0.271589
vn -0.546880 -0.825812 -0.137681
vn 0.549701 -0.790044 -0.271402
vn 0.546769 -0.826375 -0.134713
vn 0.548797 -0.788762 0.276905
vn 0.545002 -0.826047 0.143597
vn 0.000030 -0.600784 -0.799411
vn -0.311106 -0.705262 -0.637039
vn 0.746051 -0.545497 -0.381891
vn 0.626956 -0.778572 0.027437
vn -0.627062 -0.777809 0.042502
vn 0.626220 -0.774279 0.091330
vn -0.626459 -0.772619 0.103002
vn 0.625459 -0.768481 0.135050
vn -0.625632 -0.767303 0.140821
vn 0.624399 -0.760706 0.177349
vn -0.624977 -0.756902 0.191058
vn 0.622330 -0.745346 0.239091
vn -0.623032 -0.740951 0.250645
vn 0.617593 -0.715329 0.326931
vn -0.620224 -0.700720 0.352580
vn 0.596666 -0.661417 0.454442
vn -0.610766 -0.637455 0.469697
vn 0.516173 0.108779 0.849548
vn -0.865516 -0.125031 0.485026
vn -0.873657 -0.191610 -0.447224
vn 0.436853 -0.095783 -0.894419
vn 0.976765 -0.214215 0.006427
vn -0.976703 -0.214211 0.012855
vn 0.976495 -0.214156 0.024379
vn -0.976359 -0.214135 0.029478
vn 0.976110 -0.214075 0.037166
vn -0.976011 -0.214059 0.039758
vn 0.975621 -0.213968 0.048791
vn -0.975293 -0.213901 0.055232
vn 0.974554 -0.213732 0.067553
vn -0.974146 -0.213650 0.073438
vn 0.972354 -0.213251 0.095138
vn -0.970754 -0.212906 0.110944
vn 0.967399 -0.212164 0.138299
vn -0.954398 -0.240358 0.177065
vn 0.945422 0.257299 0.199934
vn -0.474423 0.870976 0.127764
# 164 normals

g knife
s 2
f 1/1/1 2/2/2 3/3/2
f 2/2/2 4/4/2 3/3/2
s 3
f 5/5/3 6/6/3 7/7/3
f 6/6/3 8/8/3 7/7/3
s 2
f 9/9/4 10/10/5 11/11/5
f 10/10/5 12/12/5 11/11/5
s 3
f 13/7/6 14/8/6 15/5/6
f 14/8/6 16/6/6 15/5/6
s 2
f 17/13/7 18/14/7 19/15/7
f 18/14/7 20/16/7 19/15/7
f 21/17/8 22/18/9 23/19/9
f 22/18/9 24/20/9 23/19/9
s 3
f 25/21/6 26/5/6 27/6/6
f 25/21/6 27/6/6 28/22/6
s 2
f 29/23/7 30/16/7 31/14/7
f 29/23/7 31/14/7 32/24/7
f 33/25/10 21/17/8 34/19/11
f 33/25/10 34/19/11 35/26/12
s 3
f 36/22/3 37/6/3 5/5/3
f 36/22/3 5/5/3 38/21/3
f 39/27/3 40/7/3 41/8/3
f 39/27/3 41/8/3 42/28/3
s 2
f 43/29/13 17/13/7 44/15/7
f 43/29/13 44/15/7 45/30/14
f 46/31/15 47/20/16 48/18/16
f 46/31/15 48/18/16 49/32/17
s 3
f 50/28/6 51/8/6 13/7/6
f 50/28/6 13/7/6 52/27/6
f 53/33/3 39/27/3 42/28/3
f 53/33/3 42/28/3 54/34/3
s 2
f 55/35/18 43/29/13 45/30/14
f 55/35/18 45/30/14 56/36/19
f 57/37/20 46/31/15 49/32/17
f 57/37/20 49/32/17 58/38/21
s 3
f 59/34/6 50/28/6 52/27/6
f 59/34/6 52/27/6 60/33/6
f 61/39/3 53/33/3 54/34/3
f 61/39/3 54/34/3 62/40/3
s 2
f 63/41/22 55/35/18 56/36/19
f 63/41/22 56/36/19 64/42/23
f 65/43/24 57/37/20 58/38/21
f 65/43/24 58/38/21 66/44/25
s 3
f 67/40/6 59/34/6 60/33/6
f 67/40/6 60/33/6 68/39/6
f 69/45/3 61/39/3 62/40/3
f 69/45/3 62/40/3 70/46/3
s 2
f 71/47/26 63/48/22 64/49/23
f 71/47/26 64/49/23 72/50/27
f 73/51/28 65/43/24 66/44/25
f 73/51/28 66/44/25 74/52/29
s 3
f 75/46/6 67/40/6 68/39/6
f 75/46/6 68/39/6 76/45/6
f 77/53/3 69/45/3 70/46/3
f 77/53/3 70/46/3 78/54/3
s 2
f 79/11/30 71/47/26 72/50/27
f 79/11/30 72/50/27 9/9/4
f 80/55/31 73/51/28 74/52/29
f 80/55/31 74/52/29 81/56/31
s 3
f 82/54/6 75/46/6 76/45/6
f 82/54/6 76/45/6 83/53/6
f 84/57/6 25/21/6 28/22/6
f 84/57/6 28/22/6 85/58/6
s 2
f 86/59/7 29/23/7 32/24/7
f 86/59/7 32/24/7 87/60/7
f 88/61/32 33/25/10 35/26/12
f 88/61/32 35/26/12 89/62/33
s 3
f 90/58/3 36/22/3 38/21/3
f 90/58/3 38/21/3 91/57/3
f 92/63/6 84/57/6 85/58/6
f 92/63/6 85/58/6 93/64/6
s 2
f 94/65/7 86/59/7 87/60/7
f 94/65/7 87/60/7 1/66/1
f 95/67/34 96/68/35 97/69/36
f 95/67/34 97/69/36 98/70/37
s 3
f 99/64/3 90/58/3 91/57/3
f 99/64/3 91/57/3 100/63/3
f 101/71/6 93/64/6 85/58/6
f 101/71/6 85/58/6 102/72/6
s 2
f 103/73/38 88/61/32 89/62/33
f 103/73/38 89/62/33 104/74/39
s 3
f 105/72/3 90/58/3 99/64/3
f 105/72/3 99/64/3 106/71/3
s 2
f 107/75/40 108/76/41 109/77/41
f 107/75/40 109/77/41 110/78/42
s 3
f 111/79/6 101/71/6 102/72/6
f 111/79/6 102/72/6 112/80/6
s 2
f 96/68/35 103/73/38 104/74/39
f 96/68/35 104/74/39 97/69/36
s 3
f 113/80/3 105/72/3 106/71/3
f 113/80/3 106/71/3 114/79/3
s 2
f 98/70/37 107/75/40 110/78/42
f 98/70/37 110/78/42 95/67/34
s 1
f 40/7/43 44/81/44 30/82/45
f 40/7/43 30/82/45 5/5/45
f 37/6/46 34/83/47 47/84/48
f 37/6/46 47/84/48 41/8/49
f 26/5/50 31/82/50 17/81/50
f 26/5/50 17/81/50 13/7/51
f 51/8/52 48/84/53 21/83/54
f 51/8/52 21/83/54 27/6/55
f 25/21/50 32/85/50 31/82/50
f 25/21/50 31/82/50 26/5/50
f 27/6/55 21/83/54 33/86/56
f 27/6/55 33/86/56 28/22/57
f 36/22/58 35/86/59 34/83/47
f 36/22/58 34/83/47 37/6/46
f 5/5/45 30/82/45 29/85/45
f 5/5/45 29/85/45 38/21/45
f 39/27/60 45/87/61 44/81/44
f 39/27/60 44/81/44 40/7/43
f 41/8/49 47/84/48 46/88/62
f 41/8/49 46/88/62 42/28/63
f 50/28/64 49/88/65 48/84/53
f 50/28/64 48/84/53 51/8/52
f 13/7/51 17/81/50 43/87/66
f 13/7/51 43/87/66 52/27/67
f 53/33/68 56/89/69 45/87/61
f 53/33/68 45/87/61 39/27/60
f 42/28/63 46/88/62 57/90/70
f 42/28/63 57/90/70 54/34/71
f 59/34/72 58/90/73 49/88/65
f 59/34/72 49/88/65 50/28/64
f 52/27/67 43/87/66 55/89/74
f 52/27/67 55/89/74 60/33/75
f 61/39/76 64/91/77 56/89/69
f 61/39/76 56/89/69 53/33/68
f 54/34/71 57/90/70 65/92/78
f 54/34/71 65/92/78 62/40/79
f 67/40/80 66/92/81 58/90/73
f 67/40/80 58/90/73 59/34/72
f 60/33/75 55/89/74 63/91/82
f 60/33/75 63/91/82 68/39/83
f 69/45/84 72/93/85 64/91/77
f 69/45/84 64/91/77 61/39/76
f 62/40/79 65/92/78 73/94/86
f 62/40/79 73/94/86 70/46/87
f 75/46/88 74/94/89 66/92/81
f 75/46/88 66/92/81 67/40/80
f 68/39/83 63/91/82 71/93/90
f 68/39/83 71/93/90 76/45/91
f 77/53/92 9/95/93 72/93/85
f 77/53/92 72/93/85 69/45/84
f 70/46/87 73/94/86 80/96/94
f 70/46/87 80/96/94 78/54/95
f 78/54/95 80/96/94 9/95/93
f 78/54/95 9/95/93 77/53/92
f 82/54/96 81/96/97 74/94/89
f 82/54/96 74/94/89 75/46/88
f 76/45/91 71/93/90 79/95/98
f 76/45/91 79/95/98 83/53/99
f 83/53/99 79/95/98 81/96/97
f 83/53/99 81/96/97 82/54/96
f 84/57/50 87/97/50 32/85/50
f 84/57/50 32/85/50 25/21/50
f 28/22/57 33/86/56 88/98/100
f 28/22/57 88/98/100 85/58/101
f 90/58/102 89/98/103 35/86/59
f 90/58/102 35/86/59 36/22/58
f 38/21/45 29/85/45 86/97/45
f 38/21/45 86/97/45 91/57/45
f 92/63/104 1/99/105 87/97/50
f 92/63/104 87/97/50 84/57/50
f 93/64/106 109/100/107 1/99/105
f 93/64/106 1/99/105 92/63/104
f 91/57/45 86/97/45 94/99/108
f 91/57/45 94/99/108 100/63/109
f 100/63/109 94/99/108 108/100/110
f 100/63/109 108/100/110 99/64/111
f 101/71/112 110/101/113 109/100/107
f 101/71/112 109/100/107 93/64/106
f 85/58/101 88/98/100 103/102/114
f 85/58/101 103/102/114 102/72/115
f 105/72/116 104/102/117 89/98/103
f 105/72/116 89/98/103 90/58/102
f 99/64/111 108/100/110 107/101/118
f 99/64/111 107/101/118 106/71/119
f 111/79/120 95/103/121 110/101/113
f 111/79/120 110/101/113 101/71/112
f 102/72/115 103/102/114 96/104/122
f 102/72/115 96/104/122 112/80/123
f 112/80/123 96/104/122 95/103/121
f 112/80/123 95/103/121 111/79/120
f 113/80/124 97/104/125 104/102/117
f 113/80/124 104/102/117 105/72/116
f 106/71/119 107/101/118 98/103/126
f 106/71/119 98/103/126 114/79/127
f 114/79/127 98/103/126 97/104/125
f 114/79/127 97/104/125 113/80/124
s 3
f 115/105/6 116/106/6 117/107/6
f 115/105/6 117/107/6 118/108/6
f 117/107/6 119/109/6 120/110/6
f 117/107/6 120/110/6 118/108/6
f 120/110/6 119/109/6 121/111/6
f 120/110/6 121/111/6 122/112/6
f 121/111/6 123/113/6 124/114/6
f 121/111/6 124/114/6 122/112/6
f 124/114/6 123/113/6 125/115/6
f 124/114/6 125/115/6 126/116/6
f 125/115/6 127/117/6 128/118/6
f 125/115/6 128/118/6 126/116/6
f 128/118/6 127/117/6 129/119/6
f 128/118/6 129/119/6 130/120/6
f 129/119/6 131/121/6 132/122/6
f 129/119/6 132/122/6 130/120/6
f 132/122/6 131/121/6 133/123/6
s 1
f 134/106/128 135/106/128 136/107/128
f 134/106/128 136/107/128 137/107/128
f 138/108/7 139/108/7 140/105/7
f 138/108/7 140/105/7 115/105/7
s 2
f 141/124/129 142/124/130 143/125/131
f 141/124/129 143/125/131 144/125/132
s 1
f 145/110/7 146/110/7 139/108/7
f 145/110/7 139/108/7 138/108/7
s 2
f 144/125/132 143/125/131 147/126/133
f 144/125/132 147/126/133 148/126/134
s 1
f 149/112/7 150/112/7 146/110/7
f 149/112/7 146/110/7 145/110/7
s 2
f 148/126/134 147/126/133 151/127/135
f 148/126/134 151/127/135 152/127/136
s 1
f 153/114/7 154/114/7 150/112/7
f 153/114/7 150/112/7 149/112/7
s 2
f 152/127/136 151/127/135 155/128/137
f 152/127/136 155/128/137 156/128/138
s 1
f 157/116/7 158/116/7 154/114/7
f 157/116/7 154/114/7 153/114/7
s 2
f 156/128/138 155/128/137 159/129/139
f 156/128/138 159/129/139 160/129/140
s 1
f 161/118/7 162/118/7 158/116/7
f 161/118/7 158/116/7 157/116/7
s 2
f 160/129/140 159/129/139 163/130/141
f 160/129/140 163/130/141 164/130/142
s 1
f 165/120/7 166/120/7 162/118/7
f 165/120/7 162/118/7 161/118/7
s 2
f 164/130/142 163/130/141 167/131/143
f 164/130/142 167/131/143 168/131/144
s 1
f 169/122/7 170/122/7 166/120/7
f 169/122/7 166/120/7 165/120/7
s 2
f 168/131/144 167/131/143 171/132/145
f 168/131/144 171/132/145 172/132/146
s 1
f 173/123/7 174/123/7 170/122/7
f 173/123/7 170/122/7 169/122/7
s 3
f 175/107/3 176/106/3 177/105/3
f 178/108/3 175/107/3 177/105/3
f 179/110/3 180/109/3 175/107/3
f 178/108/3 179/110/3 175/107/3
f 181/111/3 180/109/3 179/110/3
f 182/112/3 181/111/3 179/110/3
f 183/114/3 184/113/3 181/111/3
f 182/112/3 183/114/3 181/111/3
f 185/115/3 184/113/3 183/114/3
f 186/116/3 185/115/3 183/114/3
f 187/118/3 188/117/3 185/115/3
f 186/116/3 187/118/3 185/115/3
f 189/119/3 188/117/3 187/118/3
f 190/120/3 189/119/3 187/118/3
f 191/122/3 192/121/3 189/119/3
f 190/120/3 191/122/3 189/119/3
f 193/123/3 192/121/3 191/122/3
s 2
f 141/124/129 137/107/147 136/107/148
f 141/124/129 136/107/148 142/124/130
f 142/124/130 136/107/148 194/109/149
f 142/124/130 194/109/149 143/125/131
f 144/125/132 195/109/150 137/107/147
f 144/125/132 137/107/147 141/124/129
f 143/125/131 194/109/149 196/111/151
f 143/125/131 196/111/151 147/126/133
f 148/126/134 197/111/152 195/109/150
f 148/126/134 195/109/150 144/125/132
f 147/126/133 196/111/151 198/113/153
f 147/126/133 198/113/153 151/127/135
f 152/127/136 199/113/154 197/111/152
f 152/127/136 197/111/152 148/126/134
f 151/127/135 198/113/153 200/115/155
f 151/127/135 200/115/155 155/128/137
f 156/128/138 201/115/156 199/113/154
f 156/128/138 199/113/154 152/127/136
f 155/128/137 200/115/155 202/117/157
f 155/128/137 202/117/157 159/129/139
f 160/129/140 203/117/158 201/115/156
f 160/129/140 201/115/156 156/128/138
f 159/129/139 202/117/157 204/119/159
f 159/129/139 204/119/159 163/130/141
f 164/130/142 205/119/160 203/117/158
f 164/130/142 203/117/158 160/129/140
f 163/130/141 204/119/159 206/121/161
f 163/130/141 206/121/161 167/131/143
f 168/131/144 207/121/162 205/119/160
f 168/131/144 205/119/160 164/130/142
f 167/131/143 206/121/161 174/123/163
f 167/131/143 174/123/163 171/132/145
f 171/132/145 174/123/163 173/123/164
f 171/132/145 173/123/164 172/132/146
f 172/132/146 173/123/164 207/121/162
f 172/132/146 207/121/162 168/131/144
# 294 triangles in group

# 294 triangles total

